<?xml version="1.0" standalone="no"?>
<!DOCTYPE svg PUBLIC "-//W3C//DTD SVG 20010904//EN"
 "http://www.w3.org/TR/2001/REC-SVG-20010904/DTD/svg10.dtd">
<svg version="1.0" xmlns="http://www.w3.org/2000/svg"
 width="1024.000000pt" height="1024.000000pt" viewBox="0 0 1024.000000 1024.000000"
 preserveAspectRatio="xMidYMid meet">

<g transform="translate(0.000000,1024.000000) scale(0.100000,-0.100000)"
fill="#aaa" stroke="none">
<path d="M2715 8615 c-272 -38 -563 -156 -760 -308 -273 -211 -480 -521 -565
-842 -51 -195 -50 -123 -50 -2429 l0 -2148 25 -123 c30 -147 69 -260 137 -392
222 -432 572 -704 1063 -825 l90 -22 2265 -4 c1687 -2 2288 0 2355 8 220 29
464 116 634 227 266 172 424 351 566 638 74 149 129 327 146 468 7 63 9 782 7
2252 l-4 2160 -22 98 c-123 537 -468 941 -983 1152 -79 32 -268 80 -369 94
-119 16 -4419 12 -4535 -4z m4539 -470 c94 -18 235 -64 308 -101 320 -160 555
-482 607 -831 7 -47 11 -384 11 -982 l0 -911 -180 0 -180 0 0 965 c0 531 -3
965 -7 965 -4 0 -36 -31 -72 -69 -37 -37 -153 -160 -260 -272 -107 -112 -245
-256 -306 -319 -61 -63 -261 -277 -445 -475 -184 -197 -397 -425 -472 -505
l-138 -145 0 -593 0 -592 -427 2 -428 3 -3 59 -3 59 73 74 c40 41 94 92 119
113 l45 39 45 -16 c68 -23 184 -14 242 20 221 130 184 462 -60 533 -174 51
-362 -85 -363 -261 l0 -50 -180 -188 -180 -188 0 -657 c0 -506 3 -663 13 -682
7 -13 28 -35 46 -47 l34 -23 563 0 564 0 0 -191 0 -191 -30 -34 c-56 -65 -75
-112 -75 -194 0 -84 19 -130 76 -188 56 -57 104 -77 189 -77 65 0 82 4 129 30
32 18 69 49 90 77 l35 48 306 0 305 -1 29 -29 c106 -108 295 -22 296 134 0 50
-33 120 -69 146 -16 10 -49 25 -74 31 -54 15 -110 2 -155 -35 l-28 -24 -303
-3 c-275 -3 -304 -2 -315 14 -55 81 -71 97 -120 123 l-55 29 -3 247 c-3 232
-4 248 -24 275 -40 54 -28 53 -616 53 l-548 0 0 120 0 120 705 0 705 0 0 -216
c0 -178 3 -222 16 -250 9 -19 22 -38 28 -42 6 -4 155 -9 330 -12 246 -4 320
-8 324 -18 13 -39 73 -110 116 -136 36 -23 63 -31 112 -34 117 -8 200 38 254
139 30 57 32 66 28 143 -3 72 -7 87 -36 133 -56 86 -142 129 -243 120 -69 -6
-150 -47 -188 -94 l-26 -33 -232 0 -233 0 0 150 0 150 630 0 630 0 0 -284 c0
-307 -8 -376 -57 -524 -57 -172 -139 -300 -288 -447 -166 -165 -320 -247 -552
-294 -100 -21 -118 -21 -2301 -21 -1889 0 -2211 2 -2283 15 -338 59 -639 284
-795 595 -102 204 -114 272 -114 655 l0 305 589 0 588 0 7 -92 c3 -50 6 -117
6 -150 l0 -58 -198 0 -199 0 -30 38 c-47 59 -113 87 -203 87 -62 0 -84 -5
-126 -27 -94 -49 -143 -131 -144 -238 0 -154 115 -269 270 -270 105 0 196 55
244 149 19 37 54 41 333 41 l213 0 32 29 33 29 3 231 3 231 270 0 269 0 0
-404 0 -404 -54 -26 c-51 -25 -101 -71 -137 -125 l-15 -24 -410 -5 -409 -4
-29 27 c-60 56 -130 69 -201 36 -110 -50 -145 -184 -73 -282 27 -36 93 -69
138 -69 41 0 117 35 131 61 9 18 27 19 439 19 286 0 430 -3 430 -10 0 -19 84
-101 125 -123 61 -33 173 -30 241 5 153 80 191 277 80 413 l-36 43 0 196 0
196 348 0 c310 0 351 2 382 18 19 9 40 28 47 42 10 19 13 178 13 686 l0 660
-195 191 -195 190 0 55 c0 148 -150 280 -303 264 -141 -14 -243 -116 -262
-262 -14 -104 47 -225 143 -281 42 -25 57 -28 137 -28 65 0 99 5 123 17 l33
17 59 -50 c33 -28 90 -77 125 -111 l65 -60 0 -69 0 -69 -445 0 -445 0 0 520 0
520 -555 0 -555 0 -2 798 -3 797 -165 3 c-146 2 -166 1 -177 -15 -10 -13 -13
-186 -13 -794 l0 -777 -22 -6 c-13 -3 -89 -6 -169 -6 l-147 0 -5 48 c-3 26 -4
445 -3 932 3 951 1 920 55 1090 46 145 143 299 263 417 185 183 348 276 572
328 l101 24 2200 0 c1920 1 2210 -1 2279 -14z m286 -2990 l0 -1355 -1140 0
-1140 0 0 115 0 115 957 0 956 0 -4 463 c-2 254 -2 730 -1 1057 l3 595 177
182 c97 101 180 183 185 183 4 0 7 -610 7 -1355z m-660 -24 l0 -609 -204 -7
c-112 -4 -209 -4 -215 -1 -8 5 -11 128 -11 409 l0 402 206 212 c114 117 211
210 215 207 5 -3 9 -279 9 -613z m-3540 -336 c0 -148 -2 -270 -3 -271 -1 -1
-93 -4 -204 -8 l-202 -7 -3 153 -3 153 -307 3 -308 2 0 -148 0 -149 -46 -7
c-26 -3 -105 -6 -175 -6 l-129 0 -2 243 c-1 133 -3 256 -3 272 -1 17 0 33 2
38 2 4 315 6 695 5 l690 -3 -2 -270z m2357 175 c71 -43 63 -144 -14 -177 -42
-17 -72 -12 -110 21 -23 20 -28 32 -28 71 0 40 5 51 33 76 38 34 74 37 119 9z
m-1544 -10 c14 -11 28 -34 32 -50 19 -85 -59 -150 -138 -116 -43 17 -57 42
-57 96 0 58 33 90 93 90 29 0 53 -7 70 -20z m4247 -395 l0 -95 -215 0 -215 0
0 95 0 95 215 0 215 0 0 -95z m-5690 -80 l0 -95 -100 0 -100 0 0 95 0 95 100
0 100 0 0 -95z m1790 -570 l0 -115 -1360 0 -1360 0 0 108 c0 60 3 112 7 115 3
4 615 7 1360 7 l1353 0 0 -115z m-5 -485 l0 -115 -257 -3 -258 -2 0 120 0 120
258 -2 257 -3 0 -115z m-2085 -250 c34 -34 42 -66 25 -106 -40 -96 -180 -67
-180 38 0 31 6 45 28 64 36 31 98 33 127 4z m5255 14 c21 -9 45 -56 45 -92 0
-17 -10 -40 -25 -56 -44 -47 -133 -29 -156 31 -12 33 5 88 34 108 22 15 73 20
102 9z m-3810 -650 c51 -33 52 -108 3 -149 -50 -42 -123 -25 -148 34 -35 86
66 167 145 115z m2585 -11 c16 -16 33 -43 36 -60 6 -28 1 -38 -29 -68 -41 -41
-81 -46 -121 -14 -39 31 -49 63 -32 103 28 68 94 86 146 39z"/>
<path d="M3480 7890 c-67 -25 -122 -77 -151 -144 -17 -41 -20 -63 -17 -121 6
-86 29 -134 97 -200 l51 -49 0 -266 c0 -237 2 -269 19 -306 10 -23 24 -45 30
-48 6 -4 11 -29 11 -55 0 -110 116 -192 228 -161 178 47 176 306 -3 351 -41
10 -43 13 -49 56 -3 25 -6 132 -6 237 l0 191 51 44 c88 76 125 190 95 293 -24
83 -66 134 -139 169 -74 35 -137 37 -217 9z m168 -196 c53 -60 4 -164 -78
-164 -31 0 -90 62 -90 94 0 92 108 138 168 70z"/>
<path d="M6290 7897 c-101 -28 -167 -94 -196 -195 -54 -184 107 -380 295 -358
76 9 132 38 185 97 l45 50 299 -1 300 -1 23 -26 c58 -61 140 -78 214 -44 132
60 147 239 27 321 -29 20 -48 25 -102 25 -57 0 -72 -4 -103 -27 l-36 -28 -310
0 -309 0 -11 33 c-37 112 -197 189 -321 154z m119 -181 c75 -39 64 -151 -17
-185 -64 -27 -140 36 -129 105 13 76 81 113 146 80z"/>
<path d="M4815 7814 c-219 -31 -364 -102 -502 -248 -86 -90 -147 -191 -187
-311 -28 -85 -30 -100 -30 -250 -1 -184 11 -240 75 -371 108 -217 283 -361
514 -425 70 -19 96 -21 230 -16 129 4 161 8 230 31 134 46 191 82 300 191 87
86 108 114 148 195 71 142 90 227 90 390 0 150 -19 243 -73 357 -125 267 -385
444 -675 457 -49 2 -103 2 -120 0z m190 -329 c89 -24 169 -71 233 -139 97
-104 142 -214 142 -346 0 -137 -48 -250 -151 -353 -154 -154 -359 -186 -559
-86 -302 151 -363 562 -119 800 120 119 293 166 454 124z"/>
<path d="M2683 7793 c-27 -5 -63 -48 -63 -75 0 -28 27 -76 51 -88 44 -24 119
22 119 72 0 31 -27 73 -55 86 -14 7 -27 11 -28 11 -1 -1 -12 -4 -24 -6z"/>
<path d="M2210 7470 c-31 -31 -27 -93 6 -119 78 -61 165 35 103 113 -26 33
-79 36 -109 6z"/>
<path d="M2943 7409 c-167 -32 -269 -209 -217 -375 36 -116 146 -194 274 -194
68 0 164 43 206 93 65 77 84 191 50 295 -42 126 -181 207 -313 181z m97 -194
c39 -20 63 -68 56 -110 -12 -62 -82 -98 -139 -70 -77 36 -80 140 -5 182 31 17
53 16 88 -2z"/>
<path d="M6753 7199 c-86 -15 -151 -65 -192 -146 l-21 -43 -209 0 c-115 0
-216 -3 -225 -6 -10 -4 -18 -24 -22 -54 -6 -45 -8 -48 -48 -60 -93 -27 -136
-88 -136 -190 0 -60 2 -64 43 -105 74 -74 162 -81 245 -19 45 35 62 73 62 144
l0 60 163 0 162 0 35 -37 c127 -132 365 -91 442 77 31 66 30 170 -2 233 -26
53 -85 112 -128 128 -43 17 -123 25 -169 18z m111 -204 c36 -33 36 -92 0 -126
-37 -35 -98 -33 -130 4 -33 39 -31 81 5 118 38 38 87 39 125 4z"/>
<path d="M2845 6428 c-2 -7 -6 -205 -10 -440 l-6 -428 180 0 181 0 0 430 c0
414 -1 430 -19 440 -30 15 -321 13 -326 -2z"/>
<path d="M3903 6320 c-139 -29 -225 -138 -225 -287 0 -59 5 -84 26 -128 66
-134 221 -197 356 -146 78 29 124 71 161 146 29 60 31 71 27 142 -5 82 -20
121 -69 184 -56 71 -175 110 -276 89z m116 -194 c71 -37 65 -142 -10 -182 -45
-23 -77 -18 -115 20 -26 26 -34 42 -34 71 0 29 8 45 34 71 38 38 77 44 125 20z"/>
<path d="M5743 6320 c-146 -30 -243 -161 -231 -315 7 -78 34 -131 98 -188 117
-106 275 -103 385 7 117 117 117 302 -1 420 -65 65 -160 94 -251 76z m116
-196 c13 -9 29 -32 37 -50 27 -65 -26 -144 -96 -144 -66 0 -120 74 -100 135
22 67 104 97 159 59z"/>
<path d="M4775 5888 c-77 -14 -169 -63 -235 -125 -189 -175 -193 -501 -7 -687
68 -68 176 -121 278 -137 145 -23 311 33 413 140 142 149 176 365 88 551 -38
78 -144 183 -224 220 -97 45 -207 58 -313 38z m202 -254 c62 -22 128 -100 144
-168 31 -139 -63 -269 -212 -291 -140 -21 -275 97 -273 240 1 120 80 209 209
238 28 6 83 -2 132 -19z"/>
<path d="M3435 3245 c-17 -16 -25 -35 -25 -60 0 -41 36 -85 70 -85 12 0 35 13
51 29 40 40 39 81 -2 115 -38 32 -63 33 -94 1z"/>
<path d="M4788 2966 c-144 -52 -227 -162 -236 -317 -5 -91 12 -151 63 -221
159 -217 490 -184 603 59 22 49 26 71 26 148 0 77 -4 98 -28 147 -35 73 -118
150 -191 177 -65 24 -179 28 -237 7z m190 -212 c84 -55 80 -194 -7 -239 -40
-20 -116 -19 -153 3 -32 19 -68 78 -68 113 0 13 9 42 21 65 36 76 136 104 207
58z"/>
</g>
</svg>
